HIERARCHY
ROOT Model
{
	OFFSET 0 0 0
	CHANNELS 6 Xposition Yposition Zposition Zrotation Xrotation Yrotation
	JOINT Model1
	{
		OFFSET 0 -2.25479 2.99384
		CHANNELS 3 Zrotation Xrotation Yrotation
		JOINT Model2
		{
			OFFSET 12.111 0 0
			CHANNELS 3 Zrotation Xrotation Yrotation
			JOINT Model3
			{
				OFFSET 11.5502 0 0
				CHANNELS 3 Zrotation Xrotation Yrotation
				JOINT Model4
				{
					OFFSET 11.781 0 0
					CHANNELS 3 Zrotation Xrotation Yrotation
					JOINT Model5
					{
						OFFSET 20.0601 0 0
						CHANNELS 3 Zrotation Xrotation Yrotation
						JOINT Model6
						{
							OFFSET 11.1962 0 0
							CHANNELS 3 Zrotation Xrotation Yrotation
							End Site
							{
								OFFSET 0 0 0
							}
						}
					}
					JOINT Model7
					{
						OFFSET 10.8223 0.417534 3.51114
						CHANNELS 3 Zrotation Xrotation Yrotation
						JOINT Model8
						{
							OFFSET -6.07944 0 0
							CHANNELS 3 Zrotation Xrotation Yrotation
							JOINT Model9
							{
								OFFSET -0.27742 10.39 -0.051239
								CHANNELS 3 Zrotation Xrotation Yrotation
								JOINT Model10
								{
									OFFSET -3.4391 -0.282043 1.86678
									CHANNELS 3 Zrotation Xrotation Yrotation
									JOINT Model11
									{
										OFFSET 13.0269 0 0
										CHANNELS 3 Zrotation Xrotation Yrotation
										JOINT Model12
										{
											OFFSET 10.8866 0 0
											CHANNELS 3 Zrotation Xrotation Yrotation
											JOINT Model13
											{
												OFFSET 16.7317 0 0
												CHANNELS 3 Zrotation Xrotation Yrotation
												JOINT Model14
												{
													OFFSET 11.8292 0 0
													CHANNELS 3 Zrotation Xrotation Yrotation
													JOINT Model15
													{
														OFFSET 4.82751 -3.73566 -0.836517
														CHANNELS 3 Zrotation Xrotation Yrotation
														JOINT Model16
														{
															OFFSET 3.75311 -0.0582886 -0.0186462
															CHANNELS 3 Zrotation Xrotation Yrotation
															JOINT Model17
															{
																OFFSET 2.88688 0.0192337 0.014801
																CHANNELS 3 Zrotation Xrotation Yrotation
																End Site
																{
																	OFFSET 0 0 0
																}
															}
														}
													}
													JOINT Model18
													{
														OFFSET 9.72197 -3.06458 0.23877
														CHANNELS 3 Zrotation Xrotation Yrotation
														JOINT Model19
														{
															OFFSET 4.61131 0 0
															CHANNELS 3 Zrotation Xrotation Yrotation
															JOINT Model20
															{
																OFFSET 2.8969 -7.62939e-006 0
																CHANNELS 3 Zrotation Xrotation Yrotation
																End Site
																{
																	OFFSET 0 0 0
																}
															}
														}
													}
													JOINT Model21
													{
														OFFSET 9.54431 -0.745064 0.588943
														CHANNELS 3 Zrotation Xrotation Yrotation
														JOINT Model22
														{
															OFFSET 5.33978 0 0
															CHANNELS 3 Zrotation Xrotation Yrotation
															JOINT Model23
															{
																OFFSET 3.03619 7.62939e-006 0
																CHANNELS 3 Zrotation Xrotation Yrotation
																End Site
																{
																	OFFSET 0 0 0
																}
															}
														}
													}
													JOINT Model24
													{
														OFFSET 9.47759 1.51286 0.485123
														CHANNELS 3 Zrotation Xrotation Yrotation
														JOINT Model25
														{
															OFFSET 4.96136 7.62939e-006 0
															CHANNELS 3 Zrotation Xrotation Yrotation
															JOINT Model26
															{
																OFFSET 2.51966 0 0
																CHANNELS 3 Zrotation Xrotation Yrotation
																End Site
																{
																	OFFSET 0 0 0
																}
															}
														}
													}
													JOINT Model27
													{
														OFFSET 9.34247 3.34117 -0.239273
														CHANNELS 3 Zrotation Xrotation Yrotation
														JOINT Model28
														{
															OFFSET 3.2826 2.28882e-005 0
															CHANNELS 3 Zrotation Xrotation Yrotation
															JOINT Model29
															{
																OFFSET 2.1292 0 0
																CHANNELS 3 Zrotation Xrotation Yrotation
																End Site
																{
																	OFFSET 0 0 0
																}
															}
														}
													}
												}
											}
										}
									}
								}
							}
						}
					}
					JOINT Model30
					{
						OFFSET 10.8223 0.4179 -3.51106
						CHANNELS 3 Zrotation Xrotation Yrotation
						JOINT Model31
						{
							OFFSET 6.07944 0 0
							CHANNELS 3 Zrotation Xrotation Yrotation
							JOINT Model32
							{
								OFFSET 0.27742 -10.39 0.051239
								CHANNELS 3 Zrotation Xrotation Yrotation
								JOINT Model33
								{
									OFFSET 3.4391 0.282043 -1.86678
									CHANNELS 3 Zrotation Xrotation Yrotation
									JOINT Model34
									{
										OFFSET -13.0269 0 0
										CHANNELS 3 Zrotation Xrotation Yrotation
										JOINT Model35
										{
											OFFSET -10.8866 0 0
											CHANNELS 3 Zrotation Xrotation Yrotation
											JOINT Model36
											{
												OFFSET -16.7317 0 0
												CHANNELS 3 Zrotation Xrotation Yrotation
												JOINT Model37
												{
													OFFSET -11.8292 0 0
													CHANNELS 3 Zrotation Xrotation Yrotation
													JOINT Model38
													{
														OFFSET -4.82751 3.73566 0.836517
														CHANNELS 3 Zrotation Xrotation Yrotation
														JOINT Model39
														{
															OFFSET -3.75311 0.0582886 0.0186462
															CHANNELS 3 Zrotation Xrotation Yrotation
															JOINT Model40
															{
																OFFSET -2.88689 -0.0192337 -0.014801
																CHANNELS 3 Zrotation Xrotation Yrotation
																End Site
																{
																	OFFSET 0 0 0
																}
															}
														}
													}
													JOINT Model41
													{
														OFFSET -9.72197 3.06459 -0.23877
														CHANNELS 3 Zrotation Xrotation Yrotation
														JOINT Model42
														{
															OFFSET -4.6113 0 0
															CHANNELS 3 Zrotation Xrotation Yrotation
															JOINT Model43
															{
																OFFSET -2.8969 0 0
																CHANNELS 3 Zrotation Xrotation Yrotation
																End Site
																{
																	OFFSET 0 0 0
																}
															}
														}
													}
													JOINT Model44
													{
														OFFSET -9.5443 0.745064 -0.588943
														CHANNELS 3 Zrotation Xrotation Yrotation
														JOINT Model45
														{
															OFFSET -5.33978 0 0
															CHANNELS 3 Zrotation Xrotation Yrotation
															JOINT Model46
															{
																OFFSET -3.03619 -1.52588e-005 0
																CHANNELS 3 Zrotation Xrotation Yrotation
																End Site
																{
																	OFFSET 0 0 0
																}
															}
														}
													}
													JOINT Model47
													{
														OFFSET -9.47758 -1.51286 -0.485123
														CHANNELS 3 Zrotation Xrotation Yrotation
														JOINT Model48
														{
															OFFSET -4.96136 -1.52588e-005 0
															CHANNELS 3 Zrotation Xrotation Yrotation
															JOINT Model49
															{
																OFFSET -2.51965 0 0
																CHANNELS 3 Zrotation Xrotation Yrotation
																End Site
																{
																	OFFSET 0 0 0
																}
															}
														}
													}
													JOINT Model50
													{
														OFFSET -9.34245 -3.34118 0.239273
														CHANNELS 3 Zrotation Xrotation Yrotation
														JOINT Model51
														{
															OFFSET -3.28259 -2.28882e-005 0
															CHANNELS 3 Zrotation Xrotation Yrotation
															JOINT Model52
															{
																OFFSET -2.1292 0 0
																CHANNELS 3 Zrotation Xrotation Yrotation
																End Site
																{
																	OFFSET 0 0 0
																}
															}
														}
													}
												}
											}
										}
									}
								}
							}
						}
					}
				}
			}
		}
	}
	JOINT Model53
	{
		OFFSET 4.38026 -2.14632 -1.11516
		CHANNELS 3 Zrotation Xrotation Yrotation
		JOINT Model54
		{
			OFFSET 0 0 4.95
			CHANNELS 3 Zrotation Xrotation Yrotation
			JOINT Model55
			{
				OFFSET 18.5642 0 0
				CHANNELS 3 Zrotation Xrotation Yrotation
				JOINT Model56
				{
					OFFSET 21.2884 0 1.52588e-005
					CHANNELS 3 Zrotation Xrotation Yrotation
					JOINT Model57
					{
						OFFSET 30.261 0 0
						CHANNELS 3 Zrotation Xrotation Yrotation
						JOINT Model58
						{
							OFFSET 11.7259 0 0
							CHANNELS 3 Zrotation Xrotation Yrotation
							JOINT Model59
							{
								OFFSET 10.682 0 0
								CHANNELS 3 Zrotation Xrotation Yrotation
								End Site
								{
									OFFSET 0 0 0
								}
							}
						}
					}
				}
			}
		}
	}
	JOINT Model60
	{
		OFFSET -4.38026 -2.14632 -1.11516
		CHANNELS 3 Zrotation Xrotation Yrotation
		JOINT Model61
		{
			OFFSET 0 0 -4.95
			CHANNELS 3 Zrotation Xrotation Yrotation
			JOINT Model62
			{
				OFFSET -18.5642 0 0
				CHANNELS 3 Zrotation Xrotation Yrotation
				JOINT Model63
				{
					OFFSET -21.2884 0 -1.52588e-005
					CHANNELS 3 Zrotation Xrotation Yrotation
					JOINT Model64
					{
						OFFSET -30.261 0 0
						CHANNELS 3 Zrotation Xrotation Yrotation
						JOINT Model65
						{
							OFFSET -11.7259 0 0
							CHANNELS 3 Zrotation Xrotation Yrotation
							JOINT Model66
							{
								OFFSET -10.682 0 0
								CHANNELS 3 Zrotation Xrotation Yrotation
								End Site
								{
									OFFSET 0 0 0
								}
							}
						}
					}
				}
			}
		}
	}
}
MOTION
Frames: 4
Frame Time: 0.033333
-145.779 158.604 -208.033 -99.6964 30.62 -77.7204 -180 4.29621e-031 -90 3.97225 -2.5575 1.06221 8.00295 -5.03512 2.30274 8.00295 -5.03469 2.30268 1.64484 13.2097 -11.2347 -3.68333 10.9239 -1.55898 120.092 75.5343 58.4939 -9.26745 -12.4096 -3.12014 -167.277 84.4999 48.8109 158.601 -2.28682 -7.58388 1.70866e-006 19.2001 3.23148e-005 -40.3313 -0.586834 0.39424 -5.34347e-008 -1.48098 -2.85399e-007 20.7962 -0.56543 -3.08139 -72.0648 39.0385 39.3397 33.3638 2.10362 14.835 0.588947 0.308273 6.35287 -99.6409 81.413 100.35 -0.0181409 2.77947e-005 -0.117315 -0.124139 0.00241114 -0.799296 -79.8382 79.5773 80.5374 -0.000225767 -0.000220907 2.21938e-005 -0.000956214 0.000122916 -2.73216e-005 -66.7416 80.4058 67.2171 -0.000437123 1.59616e-005 -2.73221e-005 -0.000136591 -0.00010927 -5.46434e-005 -6.42159 81.2158 8.01779 -0.000218557 1.69175e-005 0.000212136 0.000901596 -0.000184789 -0.000218572 -59.9282 75.5373 58.5147 -7.48838 -4.78696 -0.215565 -167.277 84.4999 48.8109 163.462 6.41304 15.3611 -1.29201e-005 28.7386 4.06626e-005 -118.843 17.5049 0.560303 -1.13005e-005 26.4061 5.82612e-006 15.1555 2.23694 16.6992 -72.0648 39.0385 39.3397 33.3638 2.10361 14.835 0.588946 0.308273 6.35287 -99.6409 81.413 100.35 -0.0181409 3.0077e-005 -0.117315 -0.124139 0.00241113 -0.799296 -79.8382 79.5773 80.5374 -0.000260638 -0.000218567 2.35715e-005 -0.000956215 0.000122995 -2.73192e-005 -66.7416 80.4058 67.2171 -0.000437124 1.48801e-005 -2.73199e-005 -0.000136593 -0.000109285 -5.46404e-005 -6.42159 81.2158 8.01779 -0.000218557 1.95776e-005 0.000212297 0.000901595 -0.000191247 -0.000218566 0.000811311 0.56661 89.91 -30.0413 -3.30406 -27.3615 2.40366e-006 6.56744 -1.21557e-007 62.8644 -1.76457 -0.00762046 -9.23608e-008 -2.75509 -9.33005e-008 -74.5544 -12.626 4.7646 -35.4947 5.20152e-007 2.04953e-007 -180 -0.566579 -90.09 -32.4249 -10.5146 -20.1248 -2.98485e-006 -8.10115 -2.53558e-007 61.0868 11.7528 -0.00714912 6.31282e-007 17.5226 1.14784e-006 -71.3692 11.1384 -6.66215 -35.4947 -1.60565e-008 -2.37532e-008 
-145.462 158.379 -209.447 -99.2723 27.9346 -78.9394 -180 4.29621e-031 -90 3.94483 -2.67161 1.00993 7.9489 -5.26728 2.20518 7.9489 -5.26684 2.20512 2.44942 13.5672 -12.0707 -3.44946 11.1424 -0.966937 120.092 75.5343 58.4939 -8.99423 -13.0505 -3.4024 -167.277 84.4999 48.8109 159.222 -1.62274 -8.17508 9.83918e-007 20.4046 3.25604e-005 -39.0852 1.10047 0.383989 -4.07758e-008 1.06079 -2.85352e-007 20.6946 -0.359497 -1.96983 -72.0648 39.0385 39.3397 33.3638 2.10362 14.835 0.588947 0.308273 6.35287 -99.6409 81.413 100.35 -0.0181409 2.77947e-005 -0.117315 -0.124139 0.00241114 -0.799296 -79.8382 79.5773 80.5374 -0.000225767 -0.000220907 2.21938e-005 -0.000956214 0.000122916 -2.73216e-005 -66.7416 80.4058 67.2171 -0.000437123 1.59616e-005 -2.73221e-005 -0.000136591 -0.00010927 -5.46434e-005 -6.42159 81.2158 8.01779 -0.000218557 1.69175e-005 0.000212136 0.000901596 -0.000184789 -0.000218572 -59.9282 75.5373 58.5147 -5.87256 -5.02161 -0.515229 -167.277 84.4999 48.8109 166.091 4.72711 13.8047 -1.09722e-005 26.2768 3.97627e-005 -118.015 18.1746 0.566846 -1.14132e-005 27.3906 5.87713e-006 15.2305 2.2915 17.0247 -72.0648 39.0385 39.3397 33.3638 2.10361 14.835 0.588946 0.308273 6.35287 -99.6409 81.413 100.35 -0.0181409 3.0077e-005 -0.117315 -0.124139 0.00241113 -0.799296 -79.8382 79.5773 80.5374 -0.000260638 -0.000218567 2.35715e-005 -0.000956215 0.000122995 -2.73192e-005 -66.7416 80.4058 67.2171 -0.000437124 1.48801e-005 -2.73199e-005 -0.000136593 -0.000109285 -5.46404e-005 -6.42159 81.2158 8.01779 -0.000218557 1.95776e-005 0.000212297 0.000901595 -0.000191247 -0.000218566 0.000811311 0.56661 89.91 -30.6422 -2.88878 -27.1874 2.40433e-006 6.88059 -1.21635e-007 62.5049 -0.829369 -0.00762893 -9.00754e-008 -1.3519 -9.32187e-008 -75.2954 -12.7199 4.68146 -35.4947 5.21183e-007 2.01139e-007 -180 -0.566579 -90.09 -31.8782 -10.9384 -20.7529 -2.98593e-006 -8.34326 -2.53713e-007 62.2378 10.5999 -0.00711075 6.67306e-007 15.792 1.13752e-006 -72.969 12.0611 -6.9702 -35.4942 0.00148743 -8.01493e-005 
-145.023 158.148 -211.497 -98.9861 23.6167 -80.4089 -180 4.29621e-031 -90 3.92635 -2.84267 0.941464 7.91328 -5.61408 2.07963 7.91328 -5.61364 2.07957 3.90327 13.7942 -12.679 -3.33219 11.3643 -0.34399 120.092 75.5343 58.4939 -8.22841 -13.622 -3.67496 -167.277 84.4999 48.8109 160.624 -0.989123 -9.7019 6.42169e-008 21.9063 3.28923e-005 -37.5388 1.87792 0.371201 -3.48935e-008 2.24108 -2.85522e-007 20.4063 -0.00405958 -0.0196425 -72.0648 39.0385 39.3397 33.3638 2.10362 14.835 0.588947 0.308273 6.35287 -99.6409 81.413 100.35 -0.0181409 2.77947e-005 -0.117315 -0.124139 0.00241114 -0.799296 -79.8382 79.5773 80.5374 -0.000225767 -0.000220907 2.21938e-005 -0.000956214 0.000122916 -2.73216e-005 -66.7416 80.4058 67.2171 -0.000437123 1.59616e-005 -2.73221e-005 -0.000136591 -0.00010927 -5.46434e-005 -6.42159 81.2158 8.01779 -0.000218557 1.69175e-005 0.000212136 0.000901596 -0.000184789 -0.000218572 -59.9282 75.5373 58.5147 -3.91754 -5.59179 -0.967703 -167.277 84.4999 48.8109 170.579 1.82265 11.4966 -7.92009e-006 22.2015 3.85089e-005 -116.5 18.4946 0.57569 -1.14647e-005 27.8343 5.90099e-006 15.8808 2.56123 18.221 -72.0648 39.0385 39.3397 33.3638 2.10361 14.835 0.588946 0.308273 6.35287 -99.6409 81.413 100.35 -0.0181409 3.0077e-005 -0.117315 -0.124139 0.00241113 -0.799296 -79.8382 79.5773 80.5374 -0.000260638 -0.000218567 2.35715e-005 -0.000956215 0.000122995 -2.73192e-005 -66.7416 80.4058 67.2171 -0.000437124 1.48801e-005 -2.73199e-005 -0.000136593 -0.000109285 -5.46404e-005 -6.42159 81.2158 8.01779 -0.000218557 1.95776e-005 0.000212297 0.000901595 -0.000191247 -0.000218566 0.000811311 0.56661 89.91 -31.7902 -2.49755 -27.3065 2.40473e-006 7.06777 -1.21684e-007 62.2985 0.866941 -0.00764042 -8.59357e-008 1.19278 -9.32129e-008 -77.4449 -11.9033 3.97228 -35.4947 5.23571e-007 1.95152e-007 -180 -0.566579 -90.09 -30.8032 -12.4215 -22.4289 -2.99153e-006 -9.59079 -2.54587e-007 63.3975 9.67549 -0.00707983 6.95751e-007 14.4042 1.13011e-006 -73.3244 13.2561 -7.52733 -35.4978 -0.00858438 0.000464558 
-144.679 158.12 -213.59 -99.1058 18.6223 -81.6104 -180 4.29621e-031 -90 3.92512 -3.01784 0.865087 7.91165 -5.96928 1.93929 7.91165 -5.96885 1.93923 5.623 13.6255 -12.3327 -3.3751 11.4308 0.0106357 120.092 75.5343 58.4939 -6.76413 -13.6357 -3.74426 -167.277 84.4999 48.8109 162.444 -0.736832 -11.9592 -7.06553e-007 23.1409 3.31876e-005 -35.9697 0.733037 0.357732 -4.33741e-008 0.539095 -2.85316e-007 19.863 0.307981 1.7626 -72.0648 39.0385 39.3397 33.3638 2.10362 14.835 0.588947 0.308273 6.35287 -99.6409 81.413 100.35 -0.0181409 2.77947e-005 -0.117315 -0.124139 0.00241114 -0.799296 -79.8382 79.5773 80.5374 -0.000225767 -0.000220907 2.21938e-005 -0.000956214 0.000122916 -2.73216e-005 -66.7416 80.4058 67.2171 -0.000437123 1.59616e-005 -2.73221e-005 -0.000136591 -0.00010927 -5.46434e-005 -6.42159 81.2158 8.01779 -0.000218557 1.69175e-005 0.000212136 0.000901596 -0.000184789 -0.000218572 -59.9282 75.5373 58.5147 -2.46926 -6.54964 -1.46981 -167.277 84.4999 48.8109 175.53 -1.72107 9.38543 -4.53472e-006 17.3891 3.73614e-005 -114.017 17.8383 0.585336 -1.13444e-005 26.7918 5.84579e-006 17.2501 3.17185 20.6734 -72.0648 39.0385 39.3397 33.3638 2.10361 14.835 0.588946 0.308273 6.35287 -99.6409 81.413 100.35 -0.0181409 3.0077e-005 -0.117315 -0.124139 0.00241113 -0.799296 -79.8382 79.5773 80.5374 -0.000260638 -0.000218567 2.35715e-005 -0.000956215 0.000122995 -2.73192e-005 -66.7416 80.4058 67.2171 -0.000437124 1.48801e-005 -2.73199e-005 -0.000136593 -0.000109285 -5.46404e-005 -6.42159 81.2158 8.01779 -0.000218557 1.95776e-005 0.000212297 0.000901595 -0.000191247 -0.000218566 0.000811311 0.56661 89.91 -33.1728 -2.09957 -27.3092 2.40487e-006 7.13103 -1.217e-007 62.5397 2.55522 -0.00765873 -8.18089e-008 3.72494 -9.339e-008 -80.2326 -8.51259 2.16776 -35.4947 5.27244e-007 1.87109e-007 -180 -0.566579 -90.09 -29.1001 -14.3019 -24.2 -2.99861e-006 -11.1533 -2.55861e-007 64.3368 8.98436 -0.0070551 7.16787e-007 13.3665 1.12506e-006 -74.1168 13.7922 -7.69434 -35.5123 -0.0498113 0.00267494 
